<?xml version="1.0" standalone="no"?>
<!DOCTYPE svg PUBLIC "-//W3C//DTD SVG 20010904//EN"
 "http://www.w3.org/TR/2001/REC-SVG-20010904/DTD/svg10.dtd">
<svg version="1.0" xmlns="http://www.w3.org/2000/svg"
 width="700.000000pt" height="700.000000pt" viewBox="0 0 700.000000 700.000000"
 preserveAspectRatio="xMidYMid meet">
<metadata>
Created by potrace 1.11, written by Peter Selinger 2001-2013
</metadata>
<g transform="translate(0.000000,700.000000) scale(0.100000,-0.100000)"
fill="#000000" stroke="none">
<path d="M5587 6224 c-1 -1 -45 -5 -97 -8 -401 -28 -747 -122 -1080 -295 -101
-52 -329 -196 -379 -240 -13 -12 -25 -21 -26 -21 -1 0 -2 113 -1 250 1 138 -1
256 -4 263 -4 10 -429 12 -2002 12 l-1998 0 0 -381 0 -381 762 -1 c420 0 769
-1 776 -1 9 -1 12 -473 12 -2324 l0 -2322 443 1 c243 1 445 2 450 3 4 0 7
1045 7 2321 0 1849 3 2320 13 2321 16 1 1248 1 1265 0 8 -1 -17 -34 -54 -73
-90 -97 -221 -274 -294 -398 -33 -55 -60 -103 -60 -106 0 -3 -8 -18 -18 -32
-62 -89 -203 -486 -237 -663 -3 -13 -9 -46 -15 -74 -16 -78 -18 -88 -25 -145
-4 -29 -8 -61 -10 -70 -2 -10 -7 -55 -10 -101 -4 -46 -9 -100 -11 -119 -4 -49
-4 -437 0 -480 3 -19 7 -71 11 -115 3 -44 8 -87 10 -95 2 -8 6 -37 10 -65 10
-84 56 -294 87 -400 210 -709 723 -1277 1381 -1532 179 -69 396 -125 577 -148
25 -3 56 -8 70 -10 108 -18 446 -24 660 -11 120 7 145 10 235 21 22 2 63 7 90
10 28 3 66 10 85 15 19 5 53 11 75 14 156 21 438 110 626 198 l89 41 0 404 0
405 -52 -32 c-184 -108 -470 -223 -640 -255 -13 -3 -45 -9 -73 -15 -75 -14
-134 -24 -230 -36 -22 -3 -137 -7 -255 -8 -202 -3 -377 11 -490 39 -14 3 -45
11 -70 17 -425 98 -825 405 -1042 798 -111 201 -198 476 -222 705 -4 33 -10
80 -13 105 -7 58 -7 422 1 480 3 25 8 70 11 100 13 126 79 402 117 490 6 14
14 34 19 45 30 76 67 157 91 198 15 26 28 50 28 53 0 3 19 34 42 67 192 279
420 480 703 620 145 72 385 147 520 163 22 2 49 6 61 9 79 18 394 24 539 11
277 -24 551 -101 802 -226 l153 -76 -2 434 -3 434 -80 30 c-163 60 -413 123
-572 143 -24 3 -61 8 -84 11 -42 5 -81 9 -224 20 -76 5 -443 12 -448 8z"/>
</g>
</svg>
