<?xml version="1.0" encoding="UTF-8" standalone="no"?><!DOCTYPE svg PUBLIC "-//W3C//DTD SVG 1.1//EN" "http://www.w3.org/Graphics/SVG/1.1/DTD/svg11.dtd"><svg width="100%" height="100%" viewBox="0 0 320 50" version="1.1" xmlns="http://www.w3.org/2000/svg" xmlns:xlink="http://www.w3.org/1999/xlink" xml:space="preserve" style="fill-rule:evenodd;clip-rule:evenodd;stroke-linejoin:round;stroke-miterlimit:1.41421;"><path d="M35.537,9.723l-12.95,0l0,38.727l-7.482,0l0,-38.727l-12.919,0l0,-6.35l33.351,0l0,6.35Z" style="fill:url(#_Linear1);fill-rule:nonzero;"/><path d="M53.549,23.208c-0.88,-0.691 -2.148,-1.037 -3.804,-1.037c-2.158,0 -3.96,0.974 -5.406,2.923c-1.446,1.949 -2.169,4.6 -2.169,7.953l0,15.403l-7.293,0l0,-32.189l7.293,0l0,6.633l0.126,0c0.712,-2.263 1.807,-4.029 3.284,-5.297c1.478,-1.268 3.128,-1.901 4.951,-1.901c1.321,0 2.326,0.199 3.018,0.597l0,6.915Z" style="fill:url(#_Linear2);fill-rule:nonzero;"/><path d="M83.411,48.45l-7.072,0l0,-5.03l-0.126,0c-2.222,3.856 -5.48,5.784 -9.776,5.784c-3.164,0 -5.643,-0.859 -7.434,-2.577c-1.792,-1.719 -2.688,-3.993 -2.688,-6.822c0,-6.077 3.5,-9.618 10.499,-10.624l9.556,-1.352c0,-4.589 -2.179,-6.884 -6.538,-6.884c-3.835,0 -7.293,1.32 -10.373,3.961l0,-6.381c3.394,-2.012 7.313,-3.018 11.756,-3.018c8.131,0 12.196,4.003 12.196,12.008l0,20.935Zm-7.041,-15.812l-6.758,0.943c-2.096,0.273 -3.673,0.781 -4.731,1.525c-1.058,0.744 -1.588,2.048 -1.588,3.914c0,1.362 0.488,2.478 1.462,3.347c0.975,0.87 2.279,1.305 3.914,1.305c2.221,0 4.06,-0.781 5.516,-2.342c1.457,-1.561 2.185,-3.526 2.185,-5.894l0,-2.798Z" style="fill:url(#_Linear3);fill-rule:nonzero;"/><path d="M95.985,9.503c-1.195,0 -2.216,-0.388 -3.065,-1.163c-0.849,-0.775 -1.273,-1.76 -1.273,-2.955c0,-1.194 0.424,-2.19 1.273,-2.986c0.849,-0.796 1.87,-1.194 3.065,-1.194c1.236,0 2.284,0.398 3.143,1.194c0.859,0.796 1.289,1.792 1.289,2.986c0,1.132 -0.43,2.101 -1.289,2.908c-0.859,0.807 -1.907,1.21 -3.143,1.21Zm3.615,38.947l-7.293,0l0,-32.189l7.293,0l0,32.189Z" style="fill:url(#_Linear4);fill-rule:nonzero;"/><path d="M137.792,48.45l-7.293,0l0,-18.138c0,-6.014 -2.127,-9.021 -6.381,-9.021c-2.221,0 -4.055,0.833 -5.501,2.499c-1.446,1.666 -2.169,3.767 -2.169,6.302l0,18.358l-7.324,0l0,-32.189l7.324,0l0,5.344l0.126,0c2.41,-4.065 5.889,-6.098 10.436,-6.098c3.5,0 6.172,1.137 8.016,3.411c1.844,2.273 2.766,5.558 2.766,9.854l0,19.678Z" style="fill:url(#_Linear5);fill-rule:nonzero;"/><path d="M178.939,46.564c-3.395,1.76 -7.618,2.64 -12.668,2.64c-6.538,0 -11.777,-2.064 -15.717,-6.192c-3.94,-4.129 -5.909,-9.546 -5.909,-16.252c0,-7.209 2.216,-13.034 6.648,-17.477c4.432,-4.443 10.032,-6.664 16.801,-6.664c4.359,0 7.974,0.618 10.845,1.855l0,7.418c-3.039,-1.802 -6.392,-2.703 -10.059,-2.703c-4.883,0 -8.838,1.561 -11.866,4.683c-3.028,3.123 -4.542,7.293 -4.542,12.511c0,4.967 1.414,8.922 4.243,11.866c2.829,2.945 6.549,4.417 11.159,4.417c4.254,0 7.943,-1.006 11.065,-3.018l0,6.916Z" style="fill:url(#_Linear6);fill-rule:nonzero;"/><path d="M215.277,48.45l-7.293,0l0,-17.603c0,-6.371 -2.127,-9.556 -6.381,-9.556c-2.138,0 -3.94,0.922 -5.407,2.766c-1.467,1.844 -2.2,4.202 -2.2,7.073l0,17.32l-7.324,0l0,-47.654l7.324,0l0,20.809l0.126,0c2.43,-4.065 5.909,-6.098 10.436,-6.098c7.146,0 10.719,4.369 10.719,13.108l0,19.835Z" style="fill:url(#_Linear7);fill-rule:nonzero;"/><path d="M251.394,34.336l-21.941,0c0.084,2.976 1.001,5.27 2.751,6.884c1.75,1.614 4.154,2.42 7.214,2.42c3.437,0 6.591,-1.027 9.461,-3.08l0,5.878c-2.933,1.844 -6.81,2.766 -11.63,2.766c-4.736,0 -8.451,-1.462 -11.143,-4.385c-2.693,-2.923 -4.04,-7.036 -4.04,-12.338c0,-5.008 1.483,-9.089 4.448,-12.243c2.965,-3.154 6.649,-4.731 11.049,-4.731c4.401,0 7.806,1.414 10.216,4.244c2.41,2.829 3.615,6.758 3.615,11.787l0,2.798Zm-7.041,-5.155c-0.021,-2.62 -0.639,-4.658 -1.855,-6.114c-1.215,-1.457 -2.892,-2.185 -5.029,-2.185c-2.096,0 -3.872,0.765 -5.328,2.295c-1.457,1.53 -2.352,3.531 -2.688,6.004l14.9,0Z" style="fill:url(#_Linear8);fill-rule:nonzero;"/><path d="M281.382,46.972c-2.577,1.488 -5.626,2.232 -9.147,2.232c-4.778,0 -8.634,-1.493 -11.568,-4.479c-2.934,-2.986 -4.401,-6.858 -4.401,-11.615c0,-5.302 1.577,-9.561 4.731,-12.778c3.154,-3.217 7.372,-4.825 12.652,-4.825c2.934,0 5.522,0.513 7.765,1.54l0,6.79c-2.243,-1.677 -4.632,-2.515 -7.167,-2.515c-3.081,0 -5.606,1.043 -7.576,3.128c-1.97,2.085 -2.955,4.815 -2.955,8.188c0,3.332 0.928,5.962 2.782,7.89c1.855,1.928 4.343,2.892 7.466,2.892c2.619,0 5.092,-0.932 7.418,-2.797l0,6.349Z" style="fill:url(#_Linear9);fill-rule:nonzero;"/><path d="M317.814,48.45l-9.241,0l-12.511,-15.466l-0.126,0l0,15.466l-7.324,0l0,-47.654l7.324,0l0,30.208l0.126,0l11.819,-14.743l8.77,0l-13.296,15.529l14.459,16.66Z" style="fill:url(#_Linear10);fill-rule:nonzero;"/><defs><linearGradient id="_Linear1" x1="0" y1="0" x2="1" y2="0" gradientUnits="userSpaceOnUse" gradientTransform="matrix(316.603,0,0,65.9799,1.05425,31.6168)"><stop offset="0" style="stop-color:#71a9f7;stop-opacity:1"/><stop offset="1" style="stop-color:#6b5ca5;stop-opacity:1"/></linearGradient><linearGradient id="_Linear2" x1="0" y1="0" x2="1" y2="0" gradientUnits="userSpaceOnUse" gradientTransform="matrix(316.603,0,0,65.9799,1.05425,31.6168)"><stop offset="0" style="stop-color:#71a9f7;stop-opacity:1"/><stop offset="1" style="stop-color:#6b5ca5;stop-opacity:1"/></linearGradient><linearGradient id="_Linear3" x1="0" y1="0" x2="1" y2="0" gradientUnits="userSpaceOnUse" gradientTransform="matrix(316.603,0,0,65.9799,1.05425,31.6168)"><stop offset="0" style="stop-color:#71a9f7;stop-opacity:1"/><stop offset="1" style="stop-color:#6b5ca5;stop-opacity:1"/></linearGradient><linearGradient id="_Linear4" x1="0" y1="0" x2="1" y2="0" gradientUnits="userSpaceOnUse" gradientTransform="matrix(316.603,0,0,65.9799,1.05425,31.6168)"><stop offset="0" style="stop-color:#71a9f7;stop-opacity:1"/><stop offset="1" style="stop-color:#6b5ca5;stop-opacity:1"/></linearGradient><linearGradient id="_Linear5" x1="0" y1="0" x2="1" y2="0" gradientUnits="userSpaceOnUse" gradientTransform="matrix(316.603,0,0,65.9799,1.05425,31.6168)"><stop offset="0" style="stop-color:#71a9f7;stop-opacity:1"/><stop offset="1" style="stop-color:#6b5ca5;stop-opacity:1"/></linearGradient><linearGradient id="_Linear6" x1="0" y1="0" x2="1" y2="0" gradientUnits="userSpaceOnUse" gradientTransform="matrix(316.603,0,0,65.9799,1.05425,31.6168)"><stop offset="0" style="stop-color:#71a9f7;stop-opacity:1"/><stop offset="1" style="stop-color:#6b5ca5;stop-opacity:1"/></linearGradient><linearGradient id="_Linear7" x1="0" y1="0" x2="1" y2="0" gradientUnits="userSpaceOnUse" gradientTransform="matrix(316.603,0,0,65.9799,1.05425,31.6168)"><stop offset="0" style="stop-color:#71a9f7;stop-opacity:1"/><stop offset="1" style="stop-color:#6b5ca5;stop-opacity:1"/></linearGradient><linearGradient id="_Linear8" x1="0" y1="0" x2="1" y2="0" gradientUnits="userSpaceOnUse" gradientTransform="matrix(316.603,0,0,65.9799,1.05425,31.6168)"><stop offset="0" style="stop-color:#71a9f7;stop-opacity:1"/><stop offset="1" style="stop-color:#6b5ca5;stop-opacity:1"/></linearGradient><linearGradient id="_Linear9" x1="0" y1="0" x2="1" y2="0" gradientUnits="userSpaceOnUse" gradientTransform="matrix(316.603,0,0,65.9799,1.05425,31.6168)"><stop offset="0" style="stop-color:#71a9f7;stop-opacity:1"/><stop offset="1" style="stop-color:#6b5ca5;stop-opacity:1"/></linearGradient><linearGradient id="_Linear10" x1="0" y1="0" x2="1" y2="0" gradientUnits="userSpaceOnUse" gradientTransform="matrix(316.603,0,0,65.9799,1.05425,31.6168)"><stop offset="0" style="stop-color:#71a9f7;stop-opacity:1"/><stop offset="1" style="stop-color:#6b5ca5;stop-opacity:1"/></linearGradient></defs></svg>